<svg version="1.1" id="Layer_1" xmlns="http://www.w3.org/2000/svg" xmlns:xlink="http://www.w3.org/1999/xlink" x="0px" y="0px"
	 width="100%" viewBox="0 0 398 398" enable-background="new 0 0 398 398" xml:space="preserve">
<path fill="#DED4DD" opacity="1.000000" stroke="none" 
	d="
M57.000008,399.000000 
	C38.339569,399.000000 19.679136,399.000000 1.014029,399.000000 
	C1.009353,266.383881 1.009353,133.767761 1.009353,1.075824 
	C133.571777,1.075824 266.143585,1.075824 398.857727,1.075824 
	C398.857727,133.666550 398.857727,266.333252 398.857727,399.000000 
	C379.924225,399.000000 360.930786,399.000000 341.462616,398.615723 
	C334.192596,384.782166 327.832794,371.089874 320.496460,357.942535 
	C310.330902,339.725006 295.318146,325.693329 278.139832,314.377380 
	C249.346054,295.410065 217.579773,287.709625 183.092239,291.817261 
	C154.100769,295.270325 129.166946,307.348999 107.044296,326.088043 
	C91.028397,339.654327 79.227921,356.383789 69.247993,374.545929 
	C64.860817,382.529968 61.064564,390.838684 57.000008,399.000000 
M261.495361,248.036102 
	C268.232208,242.232605 273.819092,235.598984 277.386932,227.311737 
	C282.358276,215.764465 283.684448,203.580551 283.967743,191.231888 
	C284.097687,185.567780 284.597412,180.292053 286.944916,174.856903 
	C294.428650,157.530167 298.851349,139.244492 301.637360,120.614174 
	C303.108887,110.774063 304.380005,100.841530 304.738342,90.914505 
	C305.116089,80.450775 299.146362,74.889336 288.697205,73.873825 
	C274.223724,72.467201 260.651062,76.245163 247.297440,80.939865 
	C238.685242,83.967651 230.359833,87.916588 221.254074,82.762764 
	C220.703003,82.450851 219.971558,82.435600 219.316101,82.333290 
	C203.181717,79.815018 187.229095,79.954994 171.457840,84.934731 
	C169.037903,85.698830 165.847198,85.395317 163.408981,84.503204 
	C148.527679,79.058304 133.550415,73.674377 117.557030,73.456291 
	C101.686928,73.239876 94.191620,77.036697 95.566154,94.114418 
	C97.090134,113.048935 101.494987,131.777237 105.077141,150.512787 
	C108.284126,167.286194 118.773491,182.349197 116.632545,200.472061 
	C116.199669,204.136261 117.445702,208.030914 118.103905,211.786682 
	C122.566391,237.250046 138.838608,253.583298 163.859085,259.033081 
	C180.685806,262.698120 197.629471,262.146393 214.545059,261.719116 
	C230.998077,261.303528 246.935867,258.012970 261.495361,248.036102 
z"/>
<path fill="#877887" opacity="1.000000" stroke="none" 
	d="
M57.468666,399.000000 
	C61.064564,390.838684 64.860817,382.529968 69.247993,374.545929 
	C79.227921,356.383789 91.028397,339.654327 107.044296,326.088043 
	C129.166946,307.348999 154.100769,295.270325 183.092239,291.817261 
	C217.579773,287.709625 249.346054,295.410065 278.139832,314.377380 
	C295.318146,325.693329 310.330902,339.725006 320.496460,357.942535 
	C327.832794,371.089874 334.192596,384.782166 340.993958,398.615723 
	C246.645767,399.000000 152.291550,399.000000 57.468666,399.000000 
z"/>
<path fill="#877988" opacity="1.000000" stroke="none" 
	d="
M261.214355,248.256958 
	C246.935867,258.012970 230.998077,261.303528 214.545059,261.719116 
	C197.629471,262.146393 180.685806,262.698120 163.859085,259.033081 
	C138.838608,253.583298 122.566391,237.250046 118.103905,211.786682 
	C117.445702,208.030914 116.199669,204.136261 116.632545,200.472061 
	C118.773491,182.349197 108.284126,167.286194 105.077141,150.512787 
	C101.494987,131.777237 97.090134,113.048935 95.566154,94.114418 
	C94.191620,77.036697 101.686928,73.239876 117.557030,73.456291 
	C133.550415,73.674377 148.527679,79.058304 163.408981,84.503204 
	C165.847198,85.395317 169.037903,85.698830 171.457840,84.934731 
	C187.229095,79.954994 203.181717,79.815018 219.316101,82.333290 
	C219.971558,82.435600 220.703003,82.450851 221.254074,82.762764 
	C230.359833,87.916588 238.685242,83.967651 247.297440,80.939865 
	C260.651062,76.245163 274.223724,72.467201 288.697205,73.873825 
	C299.146362,74.889336 305.116089,80.450775 304.738342,90.914505 
	C304.380005,100.841530 303.108887,110.774063 301.637360,120.614174 
	C298.851349,139.244492 294.428650,157.530167 286.944916,174.856903 
	C284.597412,180.292053 284.097687,185.567780 283.967743,191.231888 
	C283.684448,203.580551 282.358276,215.764465 277.386932,227.311737 
	C273.819092,235.598984 268.232208,242.232605 261.214355,248.256958 
z"/>
</svg>