<?xml version="1.0" standalone="no"?>
<!DOCTYPE svg PUBLIC "-//W3C//DTD SVG 20010904//EN"
 "http://www.w3.org/TR/2001/REC-SVG-20010904/DTD/svg10.dtd">
<svg version="1.0" xmlns="http://www.w3.org/2000/svg"
 width="635.000000pt" height="490.000000pt" viewBox="0 0 635.000000 490.000000"
 preserveAspectRatio="xMidYMid meet">

<g transform="translate(0.000000,490.000000) scale(0.100000,-0.100000)"
fill="#000000" stroke="none">
<path d="M540 3675 l0 -1035 -194 0 c-221 0 -208 6 -194 -90 12 -75 48 -146
104 -202 48 -49 150 -108 188 -109 12 0 -6 -10 -40 -23 -148 -55 -236 -170
-259 -338 l-6 -48 200 0 201 0 0 -845 0 -845 608 -2 c1749 -5 4166 -6 4305 -1
l157 5 0 2284 0 2284 -2535 0 -2535 0 0 -1035z m284 1018 c-67 -23 -264 -69
-261 -60 2 6 39 21 83 33 43 12 72 23 64 23 -8 1 -46 -8 -83 -18 -46 -14 -67
-16 -64 -8 2 6 14 15 28 19 23 7 22 7 -3 4 -16 -2 -28 0 -28 4 0 4 62 7 138 7
75 0 132 -2 126 -4z m96 -98 l0 -105 1200 0 1200 0 0 105 0 105 85 0 85 0 0
-105 0 -105 400 0 c375 0 400 -1 398 -17 -1 -10 0 -105 0 -210 l2 -193 180 0
180 0 0 195 c0 123 -4 195 -10 195 -6 0 -10 47 -10 120 0 73 4 120 10 120 6 0
10 -42 10 -105 l0 -105 405 0 405 0 0 105 0 105 70 0 70 0 0 -2275 0 -2275
-70 0 -70 0 0 105 0 105 -402 2 c-222 1 -954 0 -1628 -2 -1201 -3 -1225 -2
-1210 16 8 10 21 23 28 27 26 16 -3 170 -44 240 -9 15 -25 18 -97 19 -53 1
-91 -3 -100 -11 -23 -18 -55 -120 -60 -184 -3 -47 -1 -60 13 -67 10 -5 20 -16
24 -25 5 -13 -11 -15 -109 -15 l-115 0 0 210 c0 203 -1 210 -20 210 -19 0 -20
-7 -20 -130 l0 -130 -85 0 -85 0 0 -185 0 -185 -335 0 -335 0 0 125 0 125
-160 0 -160 0 0 250 0 250 955 0 955 0 0 386 c0 362 -1 385 -17 382 -17 -3
-18 -27 -14 -371 l3 -367 -941 0 -941 0 0 440 0 440 70 0 c56 0 70 3 70 15 0
12 -14 15 -70 15 l-70 0 0 395 0 395 70 0 c40 0 70 4 70 10 0 6 120 10 340 10
l340 0 0 -550 0 -550 195 0 195 0 0 565 0 565 -175 0 c-168 0 -175 1 -175 20
0 19 7 20 165 20 l166 0 -3 108 -3 107 -162 3 c-136 2 -163 5 -163 17 0 12 16
15 80 15 l80 0 0 110 0 110 -80 0 -80 0 0 150 0 150 -195 0 -195 0 0 -90 0
-90 174 0 c96 0 177 -3 179 -7 2 -5 2 -146 -1 -315 l-4 -308 -409 0 -409 0 0
885 0 885 160 0 160 0 0 125 c0 118 1 125 20 125 19 0 20 -7 20 -105z m160 5
l0 -100 -75 0 -75 0 0 44 c0 36 3 44 18 42 9 0 17 6 17 14 0 8 -8 14 -17 14
-15 -2 -18 6 -18 42 l0 44 75 0 75 0 0 -100z m210 0 l0 -100 -95 0 -95 0 0
100 0 100 95 0 95 0 0 -100z m210 0 l0 -100 -95 0 -95 0 0 100 0 100 95 0 95
0 0 -100z m210 56 c0 -36 -3 -44 -17 -42 -10 0 -18 -6 -18 -14 0 -8 8 -14 18
-14 14 2 17 -6 17 -42 l0 -44 -95 0 -95 0 0 100 0 100 95 0 95 0 0 -44z m160
-56 l0 -100 -70 0 -70 0 0 39 c0 30 4 40 20 44 11 3 20 10 20 17 0 7 -9 14
-20 17 -16 4 -20 14 -20 44 l0 39 70 0 70 0 0 -100z m210 0 l0 -100 -95 0 -95
0 0 100 0 100 95 0 95 0 0 -100z m210 0 l0 -100 -95 0 -95 0 0 100 0 100 95 0
95 0 0 -100z m210 60 c0 -29 -4 -40 -15 -40 -8 0 -15 -9 -15 -20 0 -11 7 -20
15 -20 11 0 15 -11 15 -40 l0 -40 -95 0 -95 0 0 100 0 100 95 0 95 0 0 -40z
m170 -60 l0 -100 -75 0 -75 0 0 44 c0 36 3 44 18 42 9 0 17 6 17 14 0 8 -8 14
-17 14 -15 -2 -18 6 -18 42 l0 44 75 0 75 0 0 -100z m210 0 l0 -100 -95 0 -95
0 0 100 0 100 95 0 95 0 0 -100z m210 0 l0 -100 -95 0 -95 0 0 100 0 100 95 0
95 0 0 -100z m210 56 c0 -36 -3 -44 -17 -42 -10 0 -18 -6 -18 -14 0 -8 8 -14
18 -14 14 2 17 -6 17 -42 l0 -44 -95 0 -95 0 0 100 0 100 95 0 95 0 0 -44z
m350 -56 l0 -100 -75 0 -75 0 0 44 c0 39 2 44 20 39 16 -4 20 0 20 17 0 17 -4
21 -20 17 -18 -5 -20 0 -20 39 l0 44 75 0 75 0 0 -100z m210 0 l0 -100 -95 0
-95 0 0 100 0 100 95 0 95 0 0 -100z m210 0 l0 -100 -95 0 -95 0 0 100 0 100
95 0 95 0 0 -100z m210 61 c0 -30 -4 -40 -20 -44 -11 -3 -20 -10 -20 -17 0 -7
9 -14 20 -17 16 -4 20 -14 20 -44 l0 -39 -95 0 -95 0 0 100 0 100 95 0 95 0 0
-39z m326 27 c4 -5 5 -10 3 -12 -8 -8 -303 -85 -308 -80 -11 11 22 23 148 55
73 18 129 35 123 37 -6 2 -70 -13 -142 -32 -75 -20 -130 -30 -128 -24 2 6 40
22 84 34 43 12 73 23 66 23 -7 1 -44 -8 -83 -19 -47 -13 -69 -15 -66 -7 2 6
14 15 28 19 23 7 22 7 -3 4 -16 -2 -28 0 -28 4 0 10 296 7 306 -2z m204 -88
l0 -100 -75 0 -75 0 0 44 c0 36 3 44 18 42 9 0 17 6 17 14 0 8 -8 14 -17 14
-15 -2 -18 6 -18 42 l0 44 75 0 75 0 0 -100z m210 0 l0 -100 -95 0 -95 0 0
100 0 100 95 0 95 0 0 -100z m210 0 l0 -100 -95 0 -95 0 0 100 0 100 95 0 95
0 0 -100z m210 56 c0 -36 -3 -44 -17 -42 -10 0 -18 -6 -18 -14 0 -8 8 -14 18
-14 14 2 17 -6 17 -42 l0 -44 -95 0 -95 0 0 100 0 100 95 0 95 0 0 -44z
m-4570 26 c0 -5 -63 -25 -139 -45 -77 -21 -147 -40 -157 -44 -11 -4 -15 -2
-12 7 2 8 64 30 144 51 153 41 164 43 164 31z m0 -30 c0 -9 -302 -93 -309 -86
-10 9 16 19 146 55 151 41 163 43 163 31z m3740 0 c0 -9 -302 -94 -309 -86 -9
9 12 17 146 54 150 42 163 44 163 32z m-3740 -32 c0 -5 -2 -10 -4 -10 -3 0
-71 -18 -152 -40 -134 -36 -169 -41 -151 -24 6 6 273 82 295 83 6 1 12 -3 12
-9z m3740 0 c0 -5 -17 -14 -37 -19 -21 -5 -89 -24 -152 -40 -104 -28 -135 -32
-119 -15 6 5 274 81 296 83 6 0 12 -3 12 -9z m-3740 -30 c0 -5 -2 -10 -4 -10
-2 0 -71 -18 -152 -40 -132 -36 -169 -42 -152 -25 6 6 274 82 296 84 6 0 12
-3 12 -9z m3740 0 c0 -5 -19 -14 -42 -21 -24 -6 -92 -24 -152 -40 -97 -26
-131 -30 -114 -14 5 5 279 82 301 84 4 1 7 -3 7 -9z m-3740 -30 c0 -5 -12 -13
-27 -16 -92 -23 -226 -63 -213 -63 8 -1 64 12 124 29 99 27 130 31 114 15 -3
-3 -34 -14 -69 -25 -35 -10 -57 -19 -48 -19 9 -1 38 6 64 14 48 14 72 12 46
-4 -10 -6 -10 -10 -1 -13 6 -2 -58 -4 -144 -4 -86 -1 -156 2 -156 6 0 4 37 18
83 30 45 12 111 30 147 40 78 22 80 23 80 10z m3740 1 c0 -5 -8 -12 -17 -15
-212 -61 -313 -82 -292 -62 4 4 287 84 302 85 4 1 7 -3 7 -8z m0 -30 c0 -15
-205 -72 -252 -70 -31 1 -17 6 122 45 134 37 130 37 130 25z m-10 -41 c-21
-13 -116 -32 -138 -28 -9 2 19 13 63 24 79 21 103 22 75 4z m10 -20 c0 -5 -10
-10 -22 -9 -22 0 -22 1 -3 9 11 5 21 9 23 9 1 1 2 -3 2 -9z m-150 -205 l0
-185 -80 0 -80 0 0 185 0 185 80 0 80 0 0 -185z m180 0 l0 -185 -80 0 -80 0 0
185 0 185 80 0 80 0 0 -185z m-3230 -865 l0 -80 -185 0 -185 0 0 80 0 80 185
0 185 0 0 -80z m-3 -563 c-1 -84 -3 -12 -3 158 0 171 2 239 3 152 2 -87 2
-227 0 -310z m163 259 c0 -117 1 -116 -81 -116 l-69 0 0 90 c0 50 2 90 4 90 2
0 31 -36 65 -80 34 -44 65 -80 68 -80 6 0 7 -1 -63 90 -75 96 -75 90 5 90 l71
0 0 -84z m166 -179 c3 -8 4 -53 2 -100 l-3 -87 -60 40 c-33 22 -64 40 -70 40
-5 -1 17 -17 49 -38 l59 -37 -143 -3 c-78 -1 -145 -1 -147 1 -2 3 -2 46 -1 96
l3 91 60 -40 c33 -22 65 -40 70 -40 6 0 -18 18 -52 40 -35 22 -63 43 -63 45 0
3 65 5 145 5 112 0 147 -3 151 -13z m-558 -254 c-115 -2 -301 -2 -415 0 -115
1 -21 2 207 2 228 0 322 -1 208 -2z m582 -548 l0 -555 -180 0 -180 0 0 555 0
555 180 0 180 0 0 -555z m-1103 528 c-20 -2 -52 -2 -70 0 -17 2 0 4 38 4 39 0
53 -2 32 -4z m-117 -23 c0 -6 -70 -10 -190 -10 -120 0 -190 4 -190 10 0 6 70
10 190 10 120 0 190 -4 190 -10z m0 -201 l0 -182 -55 6 c-156 16 -304 157
-322 307 l-6 50 192 0 191 0 0 -181z m0 -374 l0 -185 -190 0 -190 0 0 35 c0
52 37 141 84 197 60 74 180 135 269 137 l27 1 0 -185z m-92 -202 c-54 -2 -142
-2 -196 0 -53 1 -9 3 98 3 107 0 151 -2 98 -3z m209 -20 c-20 -2 -52 -2 -70 0
-17 2 0 4 38 4 39 0 53 -2 32 -4z m1800 -721 c-1 -103 -2 -18 -2 188 0 206 1
291 2 187 2 -103 2 -271 0 -375z m-709 -539 c-1 -176 -2 -193 -8 -113 -12 147
-11 320 0 320 6 0 9 -75 8 -207z m452 68 c17 -32 12 -69 -12 -85 -35 -25 -152
-22 -178 4 -23 23 -26 51 -8 80 11 17 24 20 100 20 76 0 89 -2 98 -19z m-191
-94 c8 -11 6 -18 -9 -32 -20 -18 -20 -17 -20 13 0 34 10 41 29 19z m211 -19
c0 -31 0 -31 -21 -12 -19 17 -19 19 -3 31 24 17 24 17 24 -19z m21 -101 c-8
-8 -11 9 -10 59 l1 69 10 -59 c6 -40 6 -62 -1 -69z m-271 52 c0 -33 -3 -58 -7
-56 -8 5 -5 117 3 117 2 0 4 -27 4 -61z m232 21 c21 -26 24 -100 6 -118 -19
-19 -193 -16 -212 4 -20 19 -20 66 -1 104 18 35 18 35 112 34 67 -2 79 -5 95
-24z m-482 -160 l0 -180 -80 0 -80 0 0 180 0 180 80 0 80 0 0 -180z m-1125 50
c-27 -12 -35 -12 -35 0 0 6 12 10 28 9 24 0 25 -1 7 -9z m134 6 c-9 -8 -162
-46 -167 -41 -9 9 4 16 55 30 45 12 122 20 112 11z m110 0 c-9 -10 -271 -77
-277 -72 -10 10 3 16 114 45 97 26 175 39 163 27z m31 -15 c0 -11 -24 -19
-183 -61 -102 -27 -143 -32 -126 -16 3 4 282 82 302 85 4 0 7 -3 7 -8z m3770
-20 c0 -5 -420 -120 -472 -129 -10 -2 -18 0 -18 5 0 5 92 33 205 63 113 30
201 56 196 58 -5 2 -94 -20 -198 -47 -202 -55 -203 -55 -203 -43 0 4 65 25
145 47 80 21 143 40 141 42 -2 3 -65 -12 -139 -31 -149 -40 -147 -39 -147 -27
0 4 41 19 91 32 50 13 86 25 81 27 -6 2 -44 -6 -85 -17 -83 -24 -87 -24 -87
-12 0 4 15 13 33 19 l32 11 -32 -5 c-18 -3 -33 -1 -33 4 0 5 101 9 245 9 135
-1 245 -3 245 -6z m-3770 -10 c0 -11 -26 -20 -183 -61 -102 -27 -143 -32 -126
-16 3 3 282 82 302 85 4 0 7 -3 7 -8z m1040 -91 l0 -100 -75 0 -75 0 0 44 c0
40 2 44 21 39 17 -5 20 -2 17 13 -2 11 -11 18 -21 18 -14 -2 -17 7 -17 42 l0
44 75 0 75 0 0 -100z m420 0 l0 -100 -95 0 -95 0 0 94 0 95 53 4 c28 2 71 4
95 5 l42 2 0 -100z m210 56 c0 -36 -3 -44 -17 -42 -10 0 -18 -6 -18 -14 0 -8
8 -14 18 -14 14 2 17 -6 17 -42 l0 -44 -95 0 -95 0 0 94 0 95 53 4 c28 2 71 4
95 5 l42 2 0 -44z m160 -56 l0 -100 -70 0 -70 0 0 39 c0 30 4 40 20 44 23 6
17 37 -6 37 -10 0 -14 12 -14 40 l0 40 70 0 70 0 0 -100z m210 0 l0 -100 -95
0 -95 0 0 95 0 94 58 4 c31 2 74 4 95 5 l37 2 0 -100z m210 0 l0 -100 -95 0
-95 0 0 95 0 94 58 4 c31 2 74 4 95 5 l37 2 0 -100z m210 60 c0 -28 -4 -40
-14 -40 -23 0 -29 -31 -6 -37 16 -4 20 -14 20 -44 l0 -39 -95 0 -95 0 0 95 0
94 58 4 c145 9 132 12 132 -33z m170 -60 l0 -100 -75 0 -75 0 0 44 c0 40 2 44
21 39 17 -5 20 -2 17 13 -2 11 -11 18 -21 18 -14 -2 -17 7 -17 42 l0 44 75 0
75 0 0 -100z m210 0 l0 -100 -95 0 -95 0 0 94 0 95 53 4 c28 2 71 4 95 5 l42
2 0 -100z m210 0 l0 -100 -95 0 -95 0 0 94 0 95 53 4 c28 2 71 4 95 5 l42 2 0
-100z m210 56 c0 -36 -3 -44 -17 -42 -10 0 -18 -6 -18 -14 0 -8 8 -14 18 -14
14 2 17 -6 17 -42 l0 -44 -95 0 -95 0 0 94 0 95 53 4 c28 2 71 4 95 5 l42 2 0
-44z m680 -56 l0 -100 -75 0 -75 0 0 44 c0 40 2 44 21 39 17 -5 20 -2 17 13
-2 11 -11 18 -21 18 -14 -2 -17 7 -17 42 l0 44 75 0 75 0 0 -100z m210 0 l0
-100 -95 0 -95 0 0 94 0 95 53 4 c28 2 71 4 95 5 l42 2 0 -100z m210 0 l0
-100 -95 0 -95 0 0 94 0 95 53 4 c28 2 71 4 95 5 l42 2 0 -100z m210 56 c0
-36 -3 -44 -17 -42 -10 0 -18 -6 -18 -14 0 -8 8 -14 18 -14 14 2 17 -6 17 -42
l0 -44 -95 0 -95 0 0 94 0 95 53 4 c28 2 71 4 95 5 l42 2 0 -44z m-3320 -61
l0 -95 -95 0 -95 0 0 95 0 95 95 0 95 0 0 -95z m2520 78 c0 -11 -479 -137
-487 -129 -3 3 -4 8 -2 10 7 6 453 124 472 125 9 1 17 -2 17 -6z m-3772 -14
c-2 -7 -67 -29 -143 -50 -149 -40 -165 -44 -165 -31 0 4 66 26 148 49 172 48
165 46 160 32z m3772 -16 c0 -5 -110 -38 -245 -74 -141 -38 -245 -61 -245 -55
0 6 103 39 228 72 232 63 262 70 262 57z m-3776 -22 c-14 -13 -293 -85 -301
-77 -10 10 -7 11 152 53 144 39 170 43 149 24z m3776 -10 c0 -4 -75 -28 -167
-51 -91 -24 -162 -45 -156 -47 5 -2 77 15 159 37 163 44 164 44 164 31 0 -4
-50 -21 -110 -37 -61 -16 -106 -30 -101 -32 6 -2 53 8 104 22 107 29 107 29
107 17 0 -5 -23 -14 -51 -21 -27 -7 -48 -14 -46 -17 3 -2 24 1 47 7 41 11 61
8 46 -7 -4 -5 -105 -8 -224 -9 -119 -1 -212 0 -207 2 35 13 403 112 418 113 9
1 17 -3 17 -8z m-3774 -19 c-3 -5 -65 -24 -137 -43 -73 -19 -126 -35 -118 -37
8 -1 69 13 137 31 79 22 122 30 122 22 0 -6 -35 -20 -77 -30 -43 -10 -73 -20
-66 -22 6 -2 35 3 64 11 29 9 59 16 66 16 23 0 14 -20 -9 -21 -22 -1 -22 -1 2
-8 14 -4 -46 -7 -132 -7 -103 0 -158 4 -158 11 0 9 299 95 309 89 1 -2 0 -7
-3 -12z"/>
<path d="M1878 4423 c6 -2 18 -2 25 0 6 3 1 5 -13 5 -14 0 -19 -2 -12 -5z"/>
<path d="M2680 4423 c19 -3 38 -10 42 -16 5 -8 8 -6 8 6 0 14 -8 17 -42 15
-41 -1 -41 -1 -8 -5z"/>
<path d="M2795 4419 c-11 -16 -1 -19 13 -3 7 8 8 14 3 14 -5 0 -13 -5 -16 -11z"/>
<path d="M2870 4423 c18 -9 0 -23 -31 -23 -25 0 -28 -2 -17 -14 7 -8 15 -11
18 -7 3 3 13 11 23 16 21 11 25 28 7 32 -6 1 -7 0 0 -4z"/>
<path d="M3660 4423 c24 -2 48 -10 53 -16 6 -8 7 -7 4 3 -2 11 -18 15 -53 16
l-49 1 45 -4z"/>
<path d="M3777 4423 c-10 -10 -8 -23 4 -23 5 0 8 4 5 9 -4 5 0 12 6 14 7 3 8
6 2 6 -6 1 -14 -2 -17 -6z"/>
<path d="M3846 4415 c4 -8 8 -15 10 -15 2 0 4 7 4 15 0 8 -4 15 -10 15 -5 0
-7 -7 -4 -15z"/>
<path d="M3910 4410 c0 -17 7 -20 45 -20 38 0 45 3 45 20 0 17 -7 20 -45 20
-38 0 -45 -3 -45 -20z m80 0 c0 -5 -16 -10 -35 -10 -19 0 -35 5 -35 10 0 6 16
10 35 10 19 0 35 -4 35 -10z"/>
<path d="M4845 4423 c22 -3 43 -10 47 -16 5 -8 8 -6 8 6 0 14 -8 17 -47 15
-48 -1 -48 -1 -8 -5z"/>
<path d="M4956 4421 c-10 -15 21 -33 51 -29 26 3 48 38 24 38 -6 0 -8 -7 -5
-15 5 -11 -1 -15 -24 -15 -32 0 -51 15 -30 23 9 4 10 6 1 6 -6 1 -14 -3 -17
-8z"/>
<path d="M5135 4423 c22 -3 43 -10 47 -16 5 -8 8 -6 8 6 0 14 -8 17 -47 15
-48 -1 -48 -1 -8 -5z"/>
<path d="M1847 4413 c-10 -9 -9 -23 1 -23 5 0 9 7 9 15 0 17 -1 18 -10 8z"/>
<path d="M1921 4404 c0 -11 3 -14 6 -6 3 7 2 16 -1 19 -3 4 -6 -2 -5 -13z"/>
<path d="M2002 4413 c15 -2 29 -12 31 -21 4 -16 5 -16 6 0 1 10 12 18 29 21
15 2 0 4 -33 4 -33 0 -48 -2 -33 -4z"/>
<path d="M2981 4404 c0 -11 3 -14 6 -6 3 7 2 16 -1 19 -3 4 -6 -2 -5 -13z"/>
<path d="M1050 4403 c24 -2 48 -10 53 -16 6 -8 7 -7 4 3 -2 11 -18 15 -53 16
l-49 1 45 -4z"/>
<path d="M1164 4390 c1 -11 14 -15 44 -16 l42 -1 -39 4 c-22 2 -42 9 -44 16
-2 7 -3 5 -3 -3z"/>
<path d="M1345 4403 c22 -3 43 -10 47 -16 5 -8 8 -6 8 6 0 14 -8 17 -47 15
-48 -1 -48 -1 -8 -5z"/>
<path d="M3660 4393 c0 -6 -12 -14 -27 -16 -16 -2 -1 -4 32 -4 33 0 49 2 35 4
-14 3 -28 10 -32 17 -6 8 -8 8 -8 -1z"/>
<path d="M3808 4393 c7 -3 16 -2 19 1 4 3 -2 6 -13 5 -11 0 -14 -3 -6 -6z"/>
<path d="M4812 4360 c-1 -25 2 -40 6 -34 4 7 16 14 27 17 19 4 18 5 -2 6 -16
1 -23 9 -26 29 -3 17 -4 11 -5 -18z"/>
<path d="M5103 4360 c0 -25 2 -35 4 -22 2 12 2 32 0 45 -2 12 -4 2 -4 -23z"/>
<path d="M1878 4383 c6 -2 18 -2 25 0 6 3 1 5 -13 5 -14 0 -19 -2 -12 -5z"/>
<path d="M2683 4374 c9 -11 17 -23 17 -27 0 -3 -8 -8 -17 -10 -10 -3 0 -5 22
-5 22 0 32 2 23 5 -10 2 -18 7 -18 10 0 4 8 15 18 26 17 19 16 20 -6 8 -19
-10 -27 -10 -40 1 -15 11 -15 10 1 -8z"/>
<path d="M3771 4351 c2 -30 3 -32 6 -8 5 29 13 33 29 17 7 -7 11 -6 11 4 0 8
-11 16 -24 19 -21 4 -23 1 -22 -32z"/>
<path d="M4856 4370 c12 -14 19 -32 16 -40 -8 -24 4 -8 22 30 14 28 14 31 2
16 -15 -19 -16 -19 -38 0 l-23 19 21 -25z"/>
<path d="M5135 4382 c3 -6 12 -23 19 -37 l13 -24 17 37 c16 36 16 37 -2 14
l-18 -24 -18 24 c-9 12 -14 17 -11 10z"/>
<path d="M1050 4373 c0 -6 -12 -14 -27 -16 -16 -2 -1 -4 32 -4 33 0 49 2 35 4
-14 3 -28 10 -32 17 -6 8 -8 8 -8 -1z"/>
<path d="M1310 4341 c0 -23 2 -41 4 -41 8 0 12 71 4 76 -4 3 -8 -13 -8 -35z"/>
<path d="M1371 4368 c0 -10 -8 -18 -16 -18 -9 0 -15 -9 -15 -25 0 -23 4 -25
38 -23 36 1 36 1 5 5 -20 3 -33 10 -33 19 0 9 11 14 33 15 17 1 24 3 15 6 -9
2 -19 12 -21 21 -4 15 -5 15 -6 0z"/>
<path d="M1842 4345 c0 -23 3 -30 5 -17 6 28 29 29 36 1 8 -31 52 -22 52 11 0
23 -3 25 -39 23 -23 -2 -43 2 -48 10 -4 7 -7 -5 -6 -28z m88 -5 c0 -13 -7 -20
-20 -20 -13 0 -20 7 -20 20 0 13 7 20 20 20 13 0 20 -7 20 -20z"/>
<path d="M3000 4365 c-11 -13 -15 -13 -22 -3 -6 9 -7 6 -3 -9 5 -17 1 -22 -17
-26 -13 -2 0 -4 27 -4 28 0 40 2 28 4 -29 6 -29 18 -1 37 12 9 17 16 11 16 -6
0 -16 -7 -23 -15z"/>
<path d="M3853 4365 c0 -8 4 -12 9 -9 4 3 8 9 8 15 0 5 -4 9 -8 9 -5 0 -9 -7
-9 -15z"/>
<path d="M3912 4350 c0 -19 2 -27 5 -17 2 9 2 25 0 35 -3 9 -5 1 -5 -18z"/>
<path d="M4998 4359 c12 -14 19 -29 15 -32 -3 -4 -3 -7 0 -7 4 0 14 15 22 33
14 28 14 29 1 13 -15 -19 -16 -19 -38 0 l-23 19 23 -26z"/>
<path d="M2033 4363 c38 -3 47 -8 47 -23 0 -15 -9 -20 -45 -23 l-45 -4 47 1
c44 1 48 3 48 26 0 23 -4 25 -50 26 l-50 1 48 -4z"/>
<path d="M2171 4338 c2 -31 2 -31 6 -5 3 18 10 27 23 27 13 0 20 -9 23 -27 4
-26 4 -26 6 5 1 29 -2 32 -29 32 -27 0 -30 -3 -29 -32z"/>
<path d="M3960 4355 c-6 -8 -10 -19 -8 -24 1 -6 8 1 15 14 13 28 11 31 -7 10z"/>
<path d="M1161 4328 c2 -31 2 -31 6 -5 5 29 13 33 29 17 7 -7 11 -6 11 5 0 9
-9 15 -24 15 -20 0 -23 -5 -22 -32z"/>
<path d="M1243 4345 c0 -8 4 -12 9 -9 4 3 8 9 8 15 0 5 -4 9 -8 9 -5 0 -9 -7
-9 -15z"/>
<path d="M4945 4350 c3 -5 8 -10 11 -10 2 0 4 5 4 10 0 6 -5 10 -11 10 -5 0
-7 -4 -4 -10z"/>
<path d="M2817 4333 c15 -7 29 -10 32 -5 3 5 13 11 21 14 8 2 -6 5 -32 5 -46
0 -46 -1 -21 -14z"/>
<path d="M3655 4334 c17 -17 22 -17 28 -1 3 7 -5 13 -19 13 -20 2 -21 0 -9
-12z"/>
<path d="M3818 4333 c12 -2 30 -2 40 0 9 3 -1 5 -23 4 -22 0 -30 -2 -17 -4z"/>
<path d="M1045 4314 c17 -17 22 -17 28 -1 3 7 -5 13 -19 13 -20 2 -21 0 -9
-12z"/>
<path d="M1208 4313 c12 -2 30 -2 40 0 9 3 -1 5 -23 4 -22 0 -30 -2 -17 -4z"/>
<path d="M1152 4225 l-38 -36 7 -67 c4 -37 19 -93 33 -125 l25 -57 89 0 c60 0
93 4 100 13 21 25 53 121 59 177 5 57 5 59 -30 94 -36 36 -37 36 -121 36 -84
0 -86 -1 -124 -35z m224 8 c18 -18 18 -92 -1 -117 -12 -15 -29 -19 -100 -20
-77 -2 -88 0 -101 18 -21 30 -18 112 4 125 26 16 180 11 198 -6z m-239 -125
c-2 -18 -4 -6 -4 27 0 33 2 48 4 33 2 -15 2 -42 0 -60z m282 60 c0 -13 -4 -43
-9 -68 -8 -42 -8 -41 -7 22 1 38 5 68 10 68 4 0 7 -10 6 -22z m-239 -98 c-25
-16 -30 -12 -30 22 l0 32 23 -22 c19 -19 20 -24 7 -32z m205 -22 c-11 -99 -12
-99 -113 -96 -82 3 -87 4 -102 31 -13 24 -13 30 0 55 15 26 20 27 99 30 54 2
89 -1 99 -10 15 -10 15 -9 0 7 -16 17 -16 19 0 31 9 8 19 14 20 14 2 0 1 -28
-3 -62z"/>
<path d="M1207 3988 c2 -5 33 -8 68 -8 35 0 66 3 68 8 3 4 -28 7 -68 7 -40 0
-71 -3 -68 -7z"/>
<path d="M1953 4227 c-28 -30 -30 -37 -26 -87 5 -61 39 -164 58 -180 8 -6 50
-10 102 -8 l88 3 24 49 c13 28 27 81 33 118 l9 69 -33 34 -32 35 -96 0 c-95 0
-96 0 -127 -33z m235 11 c15 -15 16 -69 1 -101 -13 -28 -55 -52 -64 -37 -4 6
-24 10 -45 10 -21 0 -41 -4 -45 -10 -9 -15 -51 9 -64 37 -14 30 -14 68 -1 94
10 17 22 19 108 19 63 0 102 -4 110 -12z m-239 -105 l-2 -68 -7 60 c-6 56 -5
75 6 75 2 0 3 -30 3 -67z m275 5 c-9 -84 -14 -86 -14 -5 0 40 4 67 10 67 7 0
9 -21 4 -62z m-226 -52 c-2 -1 -11 -8 -20 -15 -16 -12 -18 -10 -18 19 0 32 0
33 20 15 11 -10 19 -19 18 -19z m202 4 c0 -27 -2 -29 -20 -18 -18 11 -18 14
-3 30 21 24 23 23 23 -12z m-28 -27 c20 -18 23 -54 8 -84 -9 -17 -22 -19 -99
-19 -84 0 -88 1 -99 25 -16 35 -15 55 5 77 22 25 157 26 185 1z"/>
<path d="M2043 3993 c20 -2 54 -2 75 0 20 2 3 4 -38 4 -41 0 -58 -2 -37 -4z"/>
<path d="M2758 4244 c-7 -8 -22 -24 -34 -35 -17 -17 -20 -29 -17 -72 5 -56 29
-138 52 -175 13 -21 19 -23 110 -20 l96 3 24 60 c13 33 26 88 29 122 4 59 3
63 -29 97 l-33 36 -93 0 c-72 0 -95 -3 -105 -16z m210 -16 c18 -18 14 -82 -7
-109 -17 -22 -25 -24 -100 -23 -68 1 -84 4 -96 20 -15 19 -21 105 -8 117 12
12 198 8 211 -5z m-241 -105 c-2 -16 -4 -5 -4 22 0 28 2 40 4 28 2 -13 2 -35
0 -50z m283 42 c0 -14 -2 -25 -4 -25 -2 0 -6 11 -8 25 -3 14 -1 25 3 25 5 0 9
-11 9 -25z m-241 -69 c9 -10 8 -16 -4 -26 -13 -11 -15 -8 -15 14 0 30 3 32 19
12z m209 -21 c-2 -10 -7 -12 -17 -5 -13 7 -13 11 -1 25 15 18 24 8 18 -20z
m-27 -15 c22 -13 26 -65 5 -92 -11 -15 -29 -18 -94 -18 -80 0 -82 1 -97 29
-14 29 -12 53 8 79 12 15 150 17 178 2z"/>
<path d="M2790 3988 c0 -5 31 -8 69 -8 39 0 72 3 74 8 3 4 -28 7 -69 7 -41 0
-74 -3 -74 -7z"/>
<path d="M3723 4224 c-35 -36 -36 -37 -30 -100 4 -39 17 -86 34 -121 l28 -58
86 -3 c67 -2 90 1 102 12 21 22 56 131 58 187 3 41 -1 50 -34 82 -36 37 -37
37 -122 37 -85 0 -86 0 -122 -36z m220 15 c12 -7 17 -22 17 -57 0 -75 -12 -85
-110 -86 -71 -1 -87 2 -102 18 -25 27 -25 111 -1 125 22 12 172 12 196 0z
m-227 -94 c2 -59 -12 -59 -15 0 -1 25 2 45 6 45 4 0 9 -20 9 -45z m273 -7 c-1
-55 -5 -50 -11 15 -2 20 0 37 4 37 4 0 7 -24 7 -52z m-26 -69 c-4 -4 -15 -4
-23 1 -12 7 -11 12 5 31 l20 21 3 -22 c2 -12 0 -26 -5 -31z m-195 15 c1 0 -7
-9 -18 -19 -20 -18 -20 -17 -20 15 0 29 2 31 18 19 9 -7 18 -14 20 -15z m-51
-16 c-3 -8 -6 -5 -6 6 -1 11 2 17 5 13 3 -3 4 -12 1 -19z m233 -30 c13 -25 13
-30 -2 -55 -16 -27 -21 -28 -102 -31 l-85 -3 -15 30 c-9 16 -13 38 -9 48 14
40 24 44 112 41 81 -3 86 -4 101 -30z"/>
<path d="M3777 3988 c2 -5 33 -8 68 -8 35 0 66 3 68 8 3 4 -28 7 -68 7 -40 0
-71 -3 -68 -7z"/>
<path d="M4883 4223 c-33 -32 -37 -41 -34 -82 2 -56 37 -165 58 -187 12 -11
35 -14 102 -12 l86 3 28 58 c17 35 30 82 34 121 6 63 5 64 -30 100 -36 36 -37
36 -122 36 -85 0 -86 0 -122 -37z m220 16 c21 -12 24 -96 4 -124 -20 -26 -173
-29 -199 -3 -25 25 -25 113 -1 127 22 12 172 12 196 0z m-231 -86 c-6 -65 -10
-70 -11 -15 0 28 3 52 7 52 4 0 6 -17 4 -37z m278 2 c0 -19 -2 -35 -4 -35 -2
0 -6 16 -8 35 -2 19 0 35 4 35 4 0 8 -16 8 -35z m-237 -82 c-7 -3 -13 -10 -13
-16 0 -8 4 -7 12 1 17 17 172 16 186 0 17 -22 19 -52 5 -80 -13 -27 -16 -28
-97 -28 -79 0 -85 1 -101 26 -9 14 -14 35 -12 46 6 23 -2 50 -12 43 -4 -2 -5
10 -3 26 l5 31 21 -22 c15 -16 17 -24 9 -27z m207 5 c0 -30 -1 -31 -17 -16
-13 14 -14 20 -3 32 18 22 20 20 20 -16z m17 -10 c-3 -8 -6 -5 -6 6 -1 11 2
17 5 13 3 -3 4 -12 1 -19z"/>
<path d="M4937 3988 c2 -5 33 -8 68 -8 35 0 66 3 68 8 3 4 -28 7 -68 7 -40 0
-71 -3 -68 -7z"/>
<path d="M2649 3398 c-1 -46 -2 -180 -4 -298 -2 -118 -1 -263 2 -322 l6 -108
214 0 213 0 0 405 0 405 -215 0 -215 0 -1 -82z m96 62 c-11 -18 3 -40 20 -33
10 3 15 13 12 25 -5 17 -1 19 36 16 l42 -3 3 -72 3 -73 -101 0 -100 0 0 75 0
75 46 0 c29 0 43 -4 39 -10z m211 -12 c-1 -14 5 -23 14 -23 9 0 15 9 14 23 0
19 4 22 43 22 l43 0 0 -75 0 -75 -100 0 -100 0 0 75 0 75 43 0 c39 0 43 -3 43
-22z m-106 -243 l0 -95 -95 0 -95 0 0 95 0 95 95 0 95 0 0 -95z m220 0 l0 -95
-100 0 -100 0 0 95 0 95 100 0 100 0 0 -95z m-220 -210 l0 -95 -95 0 -95 0 0
95 0 95 95 0 95 0 0 -95z m220 0 l0 -95 -100 0 -100 0 0 95 0 95 100 0 100 0
0 -95z m-220 -215 l0 -100 -41 0 c-35 0 -40 2 -34 19 3 12 0 21 -9 24 -18 7
-30 -8 -22 -28 4 -12 -4 -15 -39 -15 l-45 0 0 100 0 100 95 0 95 0 0 -100z
m220 0 l0 -100 -43 0 c-39 0 -43 3 -43 23 1 13 -5 22 -14 22 -9 0 -15 -9 -14
-22 0 -20 -4 -23 -43 -23 l-43 0 0 100 0 100 100 0 100 0 0 -100z"/>
<path d="M4120 3075 l0 -405 220 0 220 0 -2 403 -3 402 -217 3 -218 2 0 -405z
m101 381 c-9 -10 -8 -16 4 -26 12 -10 16 -9 21 3 3 9 3 21 -1 27 -4 6 10 10
39 10 l46 0 0 -75 0 -75 -100 0 -100 0 0 68 c0 38 3 72 7 75 3 4 26 7 51 7 36
0 42 -2 33 -14z m210 0 c-9 -10 -8 -16 4 -26 12 -10 16 -9 21 3 3 9 3 21 -1
27 -4 6 10 10 39 10 l46 0 0 -75 0 -75 -95 0 -95 0 0 75 0 75 46 0 c38 0 44
-2 35 -14z m-101 -251 l0 -95 -95 0 -95 0 0 95 0 95 95 0 95 0 0 -95z m210 0
l0 -95 -95 0 -95 0 0 95 0 95 95 0 95 0 0 -95z m-210 -210 l0 -95 -95 0 -95 0
0 95 0 95 95 0 95 0 0 -95z m210 0 l0 -95 -95 0 -95 0 0 95 0 95 95 0 95 0 0
-95z m-210 -215 l0 -100 -45 0 c-35 0 -43 3 -39 15 8 20 -4 35 -22 28 -9 -3
-12 -12 -9 -24 6 -17 1 -19 -34 -19 l-41 0 0 100 0 100 95 0 95 0 0 -100z
m210 0 l0 -100 -40 0 c-32 0 -40 4 -40 18 0 24 -8 32 -26 25 -9 -3 -12 -13 -9
-24 6 -17 1 -19 -34 -19 l-41 0 0 100 0 100 95 0 95 0 0 -100z"/>
<path d="M2043 3295 c0 -33 2 -50 4 -38 3 14 13 23 31 26 l27 4 -27 2 c-16 0
-28 5 -28 10 0 5 12 12 28 14 l27 4 -27 2 c-16 0 -28 8 -31 19 -3 9 -5 -10 -4
-43z"/>
<path d="M2138 3295 c-2 -25 0 -45 4 -45 5 0 8 20 8 45 0 25 -2 45 -4 45 -2 0
-6 -20 -8 -45z"/>
<path d="M2330 3191 c-104 -33 -101 -29 -98 -139 l3 -97 60 -24 c33 -13 87
-25 120 -28 54 -4 63 -1 93 24 l34 29 0 98 c0 98 -1 99 -32 127 -38 35 -94 38
-180 10z m150 1 c0 -4 -17 -6 -37 -4 -65 6 -70 10 -15 11 28 0 52 -3 52 -7z
m-117 -9 c4 -3 33 -8 64 -10 109 -7 103 0 103 -111 0 -63 -4 -102 -12 -110 -7
-7 -32 -12 -55 -12 -34 0 -50 6 -70 26 -19 19 -23 28 -14 37 14 14 15 89 1
103 -7 7 -4 19 10 37 24 30 21 36 -5 11 -15 -16 -18 -16 -33 0 -13 13 -14 16
-2 16 13 0 13 2 0 10 -8 5 -10 10 -4 10 6 0 14 -3 17 -7z m-15 -40 c13 -18 17
-138 6 -168 -11 -28 -51 -37 -85 -20 -29 15 -29 17 -29 100 0 76 2 85 23 100
25 18 66 12 85 -12z m48 -195 c18 -20 18 -21 1 -15 -10 4 -28 7 -39 7 -17 0
-18 3 -8 15 17 20 23 19 46 -7z m-29 -24 c-3 -3 -12 -4 -19 -1 -8 3 -5 6 6 6
11 1 17 -2 13 -5z m113 -4 c0 -6 -23 -9 -52 -8 l-53 1 50 7 c28 4 51 8 53 8 1
1 2 -2 2 -8z"/>
<path d="M2273 3055 c0 -44 2 -61 4 -37 2 23 2 59 0 80 -2 20 -4 1 -4 -43z"/>
<path d="M3213 3175 c-32 -33 -33 -37 -33 -120 0 -84 1 -86 35 -120 29 -30 41
-35 80 -35 50 0 160 34 188 58 15 13 17 30 15 106 l-3 90 -60 24 c-35 14 -87
26 -125 28 -63 4 -66 3 -97 -31z m127 19 c-38 -8 -90 -9 -90 -2 0 4 24 7 53 7
28 -1 45 -3 37 -5z m40 -23 c12 -1 11 -4 -3 -18 -16 -16 -18 -16 -40 5 l-22
23 25 -5 c14 -2 32 -5 40 -5z m-54 -15 c18 -13 20 -24 18 -102 -2 -102 -11
-114 -86 -114 -37 0 -50 4 -58 19 -13 25 -13 151 0 185 8 23 15 26 58 26 26 0
57 -6 68 -14z m134 -1 c30 -15 30 -17 30 -100 0 -84 0 -85 -30 -100 -26 -13
-35 -14 -58 -3 -26 13 -27 17 -30 98 -3 77 -1 87 19 103 26 21 32 21 69 2z
m-103 -112 c-3 -10 -5 -2 -5 17 0 19 2 27 5 18 2 -10 2 -26 0 -35z m23 -88
c10 -12 9 -15 -8 -15 -11 0 -29 -3 -39 -7 -17 -6 -17 -5 1 15 23 26 29 27 46
7z m-45 -40 c6 -2 -11 -4 -37 -4 -27 -1 -48 3 -48 7 0 7 62 5 85 -3z"/>
<path d="M3445 3055 c0 -40 3 -71 8 -68 4 2 7 33 7 68 0 35 -3 66 -7 68 -5 3
-8 -28 -8 -68z"/>
<path d="M3801 3190 c-101 -36 -102 -38 -99 -138 l3 -87 58 -28 c35 -17 82
-30 121 -34 63 -6 64 -5 100 30 36 36 36 37 36 122 0 84 -1 86 -35 120 -30 30
-41 35 -82 35 -26 -1 -72 -9 -102 -20z m149 2 c0 -4 -17 -6 -37 -4 -65 6 -70
10 -15 11 28 0 52 -3 52 -7z m-105 -12 c3 -5 13 -6 23 -3 13 4 12 0 -6 -18
-19 -20 -24 -22 -32 -9 -6 9 -5 17 2 21 7 4 4 9 -8 12 -16 4 -16 5 -2 6 9 0
19 -3 23 -9z m-37 -26 c20 -14 22 -24 22 -98 0 -50 -5 -87 -12 -94 -7 -7 -8
-12 -4 -12 5 0 14 7 20 14 9 13 14 11 30 -11 17 -22 17 -26 3 -20 -9 3 -19 2
-22 -3 -4 -6 -12 -10 -18 -10 -8 0 -8 3 1 9 10 6 7 10 -13 15 -14 4 -30 4 -35
1 -5 -3 -23 1 -40 10 -30 15 -30 16 -30 100 0 82 1 85 28 99 35 19 43 19 70 0z
m192 -3 c5 -11 10 -54 10 -96 0 -102 -8 -115 -68 -115 -75 0 -85 12 -86 111
-1 103 10 119 84 119 38 0 52 -4 60 -19z m-153 -113 c-2 -13 -4 -5 -4 17 -1
22 1 32 4 23 2 -10 2 -28 0 -40z m103 -118 c0 -5 -21 -9 -47 -8 l-48 1 45 7
c25 4 46 8 48 8 1 1 2 -2 2 -8z"/>
<path d="M3747 3123 c-10 -9 -9 -131 1 -136 4 -3 7 28 7 69 0 41 0 74 -1 74 0
0 -4 -3 -7 -7z"/>
<path d="M4714 3196 c-3 -9 -12 -16 -20 -16 -24 0 -34 -37 -34 -125 0 -88 10
-125 34 -125 8 0 16 -7 20 -15 11 -31 183 -4 239 38 17 12 22 65 18 185 -2 41
-243 96 -257 58z m96 -2 c-38 -8 -90 -9 -90 -2 0 4 24 7 53 7 28 -1 45 -3 37
-5z m41 -13 c-8 -5 -9 -10 -3 -12 7 -3 6 -11 -3 -22 -13 -18 -14 -18 -25 2 -6
12 -15 21 -21 21 -6 0 -1 -12 10 -26 11 -15 18 -31 14 -37 -8 -14 -7 -92 1
-106 4 -6 -4 -22 -18 -36 -19 -19 -35 -25 -69 -25 -23 0 -48 5 -55 12 -17 17
-16 192 1 206 6 5 42 12 79 14 37 3 71 8 75 11 3 4 11 7 17 7 6 0 5 -4 -3 -9z
m87 -27 c20 -14 22 -24 22 -99 0 -78 -2 -86 -24 -100 -29 -19 -72 -11 -86 15
-14 27 -12 153 3 172 23 30 54 34 85 12z m-101 -216 c-43 -12 -49 -8 -26 16
21 22 24 23 35 8 11 -14 9 -18 -9 -24z m-27 -22 c8 -2 -9 -4 -37 -5 -29 0 -53
3 -53 7 0 7 52 6 90 -2z m47 8 c-3 -3 -12 -4 -19 -1 -8 3 -5 6 6 6 11 1 17 -2
13 -5z"/>
<path d="M4923 3055 c0 -44 2 -61 4 -37 2 23 2 59 0 80 -2 20 -4 1 -4 -43z"/>
<path d="M2044 3189 c-4 -7 -3 -9 4 -5 5 3 13 0 15 -6 4 -9 6 -10 6 -1 1 17
-16 25 -25 12z"/>
<path d="M2083 3145 c0 -33 2 -48 4 -32 5 33 20 36 26 5 2 -13 5 -4 6 20 0 23
5 42 10 42 6 0 12 -19 14 -42 4 -39 4 -38 3 7 -1 37 -5 50 -16 50 -8 0 -16
-10 -18 -22 -5 -32 -20 -29 -25 5 -2 15 -4 0 -4 -33z"/>
<path d="M2032 3145 c0 -16 2 -22 5 -12 2 9 2 23 0 30 -3 6 -5 -1 -5 -18z"/>
<path d="M926 3112 c-3 -5 1 -9 9 -9 8 0 12 4 9 9 -3 4 -7 8 -9 8 -2 0 -6 -4
-9 -8z"/>
<path d="M969 3102 c6 -11 8 -29 5 -39 -4 -14 -4 -15 4 -4 5 7 14 16 20 20 5
3 -1 14 -15 25 -25 18 -25 18 -14 -2z"/>
<path d="M2050 3110 c-13 -8 -12 -10 3 -10 9 0 17 5 17 10 0 12 -1 12 -20 0z"/>
<path d="M1022 3080 c0 -14 2 -19 5 -12 2 6 2 18 0 25 -3 6 -5 1 -5 -13z"/>
<path d="M912 3070 c0 -14 2 -19 5 -12 2 6 2 18 0 25 -3 6 -5 1 -5 -13z"/>
<path d="M952 3070 c0 -14 2 -19 5 -12 2 6 2 18 0 25 -3 6 -5 1 -5 -13z"/>
<path d="M2045 3039 c-4 -6 -4 -13 -1 -16 3 -4 6 -1 6 5 0 7 17 12 44 12 34 0
46 -4 49 -17 4 -14 5 -12 6 5 1 20 -3 22 -48 22 -28 0 -53 -5 -56 -11z"/>
<path d="M926 3028 c3 -5 10 -6 15 -3 13 9 11 12 -6 12 -8 0 -12 -4 -9 -9z"/>
<path d="M2047 2997 c-5 -13 -1 -17 18 -17 34 0 32 -18 -2 -23 -16 -2 -1 -4
32 -4 33 0 48 2 33 4 -16 2 -28 8 -28 13 0 5 12 11 28 13 17 2 10 5 -20 6 -26
0 -48 6 -50 13 -3 7 -7 6 -11 -5z"/>
<path d="M923 2920 c0 -36 2 -51 4 -33 3 23 10 33 26 36 l22 4 -22 2 c-16 1
-23 9 -26 29 -2 15 -4 -2 -4 -38z"/>
<path d="M1022 2926 l-2 -48 -34 4 c-19 2 -32 0 -30 -4 9 -14 64 -9 70 6 3 8
4 31 1 52 -3 36 -4 36 -5 -10z"/>
<path d="M2063 2853 c22 -4 27 -9 27 -33 0 -24 -5 -29 -27 -33 -16 -2 -3 -4
27 -4 30 0 45 2 33 4 -18 3 -23 11 -23 33 0 22 5 30 23 33 12 2 -3 4 -33 4
-30 0 -43 -2 -27 -4z"/>
<path d="M3332 2783 c2 -23 9 -29 33 -31 21 -2 26 0 16 7 -8 5 -12 18 -8 30 4
17 1 21 -20 21 -21 0 -24 -4 -21 -27z m28 -3 c0 -11 -4 -20 -10 -20 -5 0 -10
9 -10 20 0 11 5 20 10 20 6 0 10 -9 10 -20z"/>
<path d="M3789 2783 c-13 -17 -13 -17 6 -3 11 8 22 16 24 17 2 2 0 3 -6 3 -6
0 -17 -8 -24 -17z"/>
<path d="M3863 2793 c10 -3 17 -12 15 -21 -3 -13 -14 -17 -46 -16 -26 0 -38
-2 -30 -7 21 -14 65 -10 78 6 16 19 6 45 -17 44 -17 -1 -17 -2 0 -6z"/>
<path d="M2071 2746 c-38 -13 -34 -20 18 -31 25 -5 30 -10 20 -17 -11 -7 -10
-8 4 -6 31 5 24 21 -13 31 l-35 10 40 13 c22 7 31 12 20 12 -11 0 -36 -5 -54
-12z"/>
<path d="M3288 2723 c7 -3 16 -2 19 1 4 3 -2 6 -13 5 -11 0 -14 -3 -6 -6z"/>
<path d="M3342 2716 c7 -8 15 -10 18 -6 3 4 12 10 20 13 8 3 0 6 -18 6 -28 1
-31 -1 -20 -13z"/>
<path d="M3808 2703 c18 -2 45 -2 60 0 15 2 0 4 -33 4 -33 0 -45 -2 -27 -4z"/>
<path d="M2051 2681 c-11 -7 -3 -12 30 -21 24 -7 48 -15 53 -18 5 -3 6 0 2 6
-3 6 -20 14 -37 17 -23 5 -28 9 -18 16 12 7 11 9 -1 9 -8 0 -21 -4 -29 -9z"/>
<path d="M3293 2635 c0 -22 2 -30 4 -17 2 12 2 30 0 40 -3 9 -5 -1 -4 -23z"/>
<path d="M3334 2645 c-10 -25 4 -47 28 -43 17 2 23 10 23 27 0 13 -6 25 -13
27 -7 1 -8 0 -2 -3 20 -9 11 -43 -11 -43 -17 0 -20 5 -17 25 6 28 1 33 -8 10z"/>
<path d="M3810 2636 c0 -15 -7 -26 -17 -29 -16 -4 -16 -5 -1 -6 10 -1 18 -12
21 -28 2 -16 5 -2 6 30 0 31 -1 57 -4 57 -3 0 -5 -11 -5 -24z"/>
<path d="M3840 2644 c0 -3 5 -14 11 -25 8 -15 7 -24 -2 -35 -19 -23 -6 -22 16
0 l20 21 -22 22 c-13 12 -23 20 -23 17z"/>
<path d="M3308 2573 c18 -2 45 -2 60 0 15 2 0 4 -33 4 -33 0 -45 -2 -27 -4z"/>
<path d="M3339 2507 c11 -14 11 -20 1 -32 -7 -9 -11 -18 -8 -21 3 -2 12 6 21
19 14 22 14 24 -6 37 -20 12 -21 12 -8 -3z"/>
<path d="M3288 2503 c7 -3 16 -2 19 1 4 3 -2 6 -13 5 -11 0 -14 -3 -6 -6z"/>
<path d="M3831 2494 c0 -11 3 -14 6 -6 3 7 2 16 -1 19 -3 4 -6 -2 -5 -13z"/>
<path d="M3880 2484 c0 -21 -4 -25 -20 -21 -11 3 -18 1 -14 -4 3 -5 14 -9 25
-9 14 0 19 7 19 30 0 17 -2 30 -5 30 -3 0 -5 -12 -5 -26z"/>
<path d="M3805 2462 c0 -28 -4 -36 -15 -34 -12 3 -13 1 -2 -10 11 -11 14 -10
22 2 12 18 13 67 3 73 -5 3 -8 -11 -8 -31z"/>
<path d="M3271 2473 c0 -12 2 -28 5 -37 7 -17 34 -22 34 -6 0 6 -5 9 -12 8 -7
-2 -15 11 -19 27 -5 22 -7 24 -8 8z"/>
<path d="M3312 2470 c0 -14 2 -19 5 -12 2 6 2 18 0 25 -3 6 -5 1 -5 -13z"/>
<path d="M3772 2460 c0 -14 2 -19 5 -12 2 6 2 18 0 25 -3 6 -5 1 -5 -13z"/>
<path d="M3361 2448 c-1 -9 -11 -19 -23 -21 -13 -2 -6 -5 17 -5 22 -1 35 2 29
6 -6 4 -14 14 -17 22 -4 12 -6 12 -6 -2z"/>
<path d="M3383 1922 l-103 -3 0 -399 0 -400 108 -1 c154 0 316 2 319 5 3 2 4
272 3 608 l0 187 -112 3 c-62 2 -159 2 -215 0z m-7 -29 c0 -10 6 -18 14 -18 8
0 14 8 14 18 -2 14 6 17 42 17 l44 0 0 -75 0 -75 -100 0 -100 0 0 75 0 75 44
0 c36 0 44 -3 42 -17z m210 0 c0 -10 6 -18 14 -18 8 0 14 8 14 18 -2 14 6 17
42 17 l44 0 0 -75 0 -75 -100 0 -100 0 0 75 0 75 44 0 c36 0 44 -3 42 -17z
m-96 -248 l0 -95 -100 0 -100 0 0 95 0 95 100 0 100 0 0 -95z m210 0 l0 -95
-100 0 -100 0 0 95 0 95 100 0 100 0 0 -95z m-210 -210 l0 -95 -100 0 -100 0
0 95 0 95 100 0 100 0 0 -95z m210 0 l0 -95 -100 0 -100 0 0 95 0 95 100 0
100 0 0 -95z m-210 -210 l0 -95 -44 0 c-36 0 -44 3 -42 18 0 9 -6 17 -14 17
-8 0 -14 -8 -14 -17 2 -15 -6 -18 -42 -18 l-44 0 0 95 0 95 100 0 100 0 0 -95z
m210 0 l0 -95 -44 0 c-36 0 -44 3 -42 18 0 9 -6 17 -14 17 -8 0 -14 -8 -14
-17 2 -15 -6 -18 -42 -18 l-44 0 0 95 0 95 100 0 100 0 0 -95z"/>
<path d="M4568 1923 l-88 -4 0 -109 0 -110 404 0 405 0 3 111 c2 61 1 113 -1
115 -5 4 -586 2 -723 -3z m82 -113 l0 -100 -75 0 -75 0 0 44 c0 35 3 44 17 42
10 0 19 7 21 17 2 12 -3 17 -17 17 -18 0 -21 6 -21 40 l0 40 75 0 75 0 0 -100z
m210 5 l0 -95 -100 0 -100 0 0 95 0 95 100 0 100 0 0 -95z m210 0 l0 -95 -95
0 -95 0 0 95 0 95 95 0 95 0 0 -95z m210 51 c0 -40 -2 -44 -21 -39 -17 5 -20
2 -17 -13 2 -11 11 -18 21 -18 13 1 17 -7 17 -37 l0 -39 -95 0 -95 0 0 95 0
95 95 0 95 0 0 -44z"/>
<path d="M4192 1815 c0 -33 3 -50 5 -38 3 14 13 23 31 26 l27 4 -27 2 c-18 0
-28 7 -28 16 0 9 10 16 28 16 27 2 27 2 2 6 -14 3 -28 10 -32 17 -4 6 -7 -16
-6 -49z"/>
<path d="M4292 1823 c-2 -41 -3 -42 -39 -46 l-38 -4 38 -1 c43 -2 51 9 44 60
-3 30 -4 29 -5 -9z"/>
<path d="M2682 1735 c0 -33 3 -50 5 -38 3 14 13 23 31 26 l27 4 -27 2 c-18 0
-28 7 -28 16 0 9 10 16 28 16 27 2 27 2 2 6 -14 3 -28 10 -32 17 -4 6 -7 -16
-6 -49z"/>
<path d="M2782 1743 c-2 -41 -3 -42 -39 -46 l-38 -4 38 -1 c43 -2 51 9 44 60
-3 30 -4 29 -5 -9z"/>
<path d="M4233 1670 c0 -36 2 -50 4 -32 5 37 20 43 26 10 2 -13 5 -4 6 20 1
57 19 53 24 -5 l3 -48 2 53 c2 46 0 52 -18 52 -13 0 -20 -7 -20 -20 0 -30 -18
-24 -23 8 -2 15 -4 -2 -4 -38z"/>
<path d="M4186 1704 c-3 -9 -5 -25 -5 -37 1 -16 3 -14 8 8 4 17 13 29 20 27 7
-1 10 2 6 8 -9 15 -22 12 -29 -6z"/>
<path d="M3018 1649 c-31 -4 -79 -18 -105 -31 l-48 -23 0 -95 0 -95 50 -24
c28 -13 82 -27 120 -32 62 -6 72 -5 88 12 10 10 21 19 26 19 17 0 31 54 31
121 0 76 -8 100 -49 135 -28 25 -29 25 -113 13z m92 -9 c0 -6 -26 -9 -62 -8
-62 1 -63 1 -18 8 69 11 80 11 80 0z m37 -32 c9 -7 13 -42 13 -108 0 -66 -4
-101 -13 -108 -6 -6 -49 -10 -94 -10 -79 0 -82 0 -70 19 14 23 23 24 31 4 3
-8 11 -15 17 -15 8 0 8 6 -2 18 -20 23 -20 162 0 186 9 11 10 16 2 16 -6 0
-14 -7 -17 -15 -8 -20 -17 -19 -31 4 -12 19 -9 19 70 19 45 0 88 -4 94 -10z
m-175 -15 c14 -13 18 -31 18 -91 0 -103 -27 -131 -95 -100 -24 11 -25 15 -25
98 0 80 2 88 23 98 32 16 58 14 79 -5z m35 -115 c-2 -13 -4 -3 -4 22 0 25 2
35 4 23 2 -13 2 -33 0 -45z m103 -117 c0 -9 -109 -3 -119 5 -2 2 23 4 57 4 34
0 62 -4 62 -9z"/>
<path d="M2903 1500 c0 -41 2 -58 4 -37 2 20 2 54 0 75 -2 20 -4 3 -4 -38z"/>
<path d="M3874 1645 c-3 -8 -14 -17 -24 -20 -26 -8 -32 -33 -32 -132 0 -84 1
-86 34 -118 34 -33 34 -33 103 -25 39 4 93 18 120 31 l50 24 3 88 c2 53 -2 94
-8 102 -16 20 -118 53 -183 59 -45 5 -59 3 -63 -9z m125 -11 c2 -2 -23 -4 -57
-4 -35 0 -62 4 -62 10 0 9 108 3 119 -6z m8 -34 c-10 -17 -13 -17 -27 -5 -23
21 -36 19 -17 -3 13 -14 15 -30 10 -70 -4 -35 -2 -57 7 -67 10 -12 7 -20 -18
-45 -23 -23 -39 -30 -69 -30 -22 0 -44 5 -51 12 -16 16 -16 200 -1 215 7 7 46
12 95 11 79 0 82 -1 71 -18z m96 -4 c14 -11 17 -29 17 -96 0 -67 -3 -85 -17
-96 -25 -18 -63 -17 -85 3 -25 22 -26 157 -1 185 19 21 60 23 86 4z m-116
-113 c-3 -10 -5 -2 -5 17 0 19 2 27 5 18 2 -10 2 -26 0 -35z m22 -85 c12 -16
10 -18 -19 -18 -32 0 -33 0 -15 20 10 11 19 19 19 18 1 -2 8 -11 15 -20z m0
-32 c-10 -8 -129 -13 -129 -5 0 5 30 9 67 9 36 0 64 -2 62 -4z"/>
<path d="M4083 1500 c0 -41 2 -58 4 -37 2 20 2 54 0 75 -2 20 -4 3 -4 -38z"/>
<path d="M2723 1590 c0 -36 2 -50 4 -32 5 37 20 43 26 10 2 -13 5 -4 6 20 1
57 19 53 24 -5 l3 -48 2 53 c2 46 0 52 -18 52 -13 0 -20 -7 -20 -20 0 -30 -18
-24 -23 8 -2 15 -4 -2 -4 -38z"/>
<path d="M2676 1624 c-3 -9 -5 -25 -5 -37 1 -16 3 -14 8 8 4 17 13 29 20 27 7
-1 10 2 6 8 -9 15 -22 12 -29 -6z"/>
<path d="M4190 1628 c0 -4 4 -8 9 -8 6 0 12 4 15 8 3 5 -1 9 -9 9 -8 0 -15 -4
-15 -9z"/>
<path d="M4195 1570 c-4 -6 -4 -14 -1 -17 3 -4 6 -1 6 5 0 7 17 12 44 12 34 0
46 -4 49 -17 3 -14 4 -13 3 2 -1 17 -9 21 -48 23 -26 2 -49 -2 -53 -8z"/>
<path d="M2680 1548 c0 -4 4 -8 9 -8 6 0 12 4 15 8 3 5 -1 9 -9 9 -8 0 -15 -4
-15 -9z"/>
<path d="M4198 1523 c-5 -19 -2 -23 18 -23 33 0 30 -18 -3 -23 -16 -2 -1 -4
32 -4 33 0 48 2 33 4 -16 2 -28 8 -28 13 0 5 12 11 28 13 17 2 10 5 -20 6 -36
1 -47 5 -50 19 -3 14 -5 13 -10 -5z"/>
<path d="M4581 1494 c0 -11 3 -14 6 -6 3 7 2 16 -1 19 -3 4 -6 -2 -5 -13z"/>
<path d="M4630 1484 c0 -21 -4 -25 -20 -21 -11 3 -18 1 -14 -4 3 -5 14 -9 25
-9 14 0 19 7 19 30 0 17 -2 30 -5 30 -3 0 -5 -12 -5 -26z"/>
<path d="M2685 1490 c-4 -6 -4 -14 -1 -17 3 -4 6 -1 6 5 0 7 17 12 44 12 34 0
46 -4 49 -17 3 -14 4 -13 3 2 -1 17 -9 21 -48 23 -26 2 -49 -2 -53 -8z"/>
<path d="M4543 1493 c12 -3 17 -14 17 -38 0 -23 -5 -35 -17 -39 -14 -4 -14 -4
2 -3 16 2 21 11 23 45 3 38 1 42 -20 41 -17 -1 -18 -3 -5 -6z"/>
<path d="M4738 1455 c-7 -9 -22 -25 -33 -36 -14 -14 -18 -31 -17 -67 3 -56 38
-166 59 -187 19 -19 175 -21 191 -2 21 25 53 121 58 176 6 53 5 58 -27 94
l-33 37 -92 0 c-72 0 -96 -4 -106 -15z m206 -11 c24 -23 21 -96 -4 -119 -29
-26 -167 -28 -192 -2 -21 20 -25 106 -6 125 19 19 183 16 202 -4z m-237 -126
c-2 -18 -4 -4 -4 32 0 36 2 50 4 33 2 -18 2 -48 0 -65z m275 10 l-10 -63 2 72
c0 40 5 68 10 63 4 -4 4 -37 -2 -72z m-231 -45 c-25 -19 -31 -16 -31 17 0 31
0 31 24 13 21 -16 22 -19 7 -30z m204 -25 c-10 -89 -21 -98 -116 -98 -77 0
-79 1 -94 30 -20 39 -19 53 6 76 17 15 36 19 94 19 45 -1 79 -6 89 -14 9 -7
16 -9 16 -3 0 5 -7 13 -17 16 -14 6 -14 8 3 21 10 8 21 15 22 15 2 0 1 -28 -3
-62z"/>
<path d="M4777 1198 c5 -10 114 -10 130 0 6 4 -22 7 -62 7 -40 0 -71 -3 -68
-7z"/>
<path d="M2688 1443 c-5 -19 -2 -23 18 -23 33 0 30 -18 -3 -23 -16 -2 -1 -4
32 -4 33 0 48 2 33 4 -16 2 -28 8 -28 13 0 5 12 11 28 13 17 2 10 5 -20 6 -36
1 -47 5 -50 19 -3 14 -5 13 -10 -5z"/>
<path d="M4593 1413 c9 -2 25 -2 35 0 9 3 1 5 -18 5 -19 0 -27 -2 -17 -5z"/>
<path d="M4194 1366 c-13 -52 37 -66 55 -16 5 17 14 30 19 30 18 0 21 -29 6
-45 -9 -8 -11 -15 -5 -15 20 0 31 36 17 55 -15 21 -33 13 -46 -21 -5 -13 -16
-24 -25 -24 -21 0 -19 37 3 49 16 10 16 10 0 11 -10 0 -20 -10 -24 -24z"/>
<path d="M4552 1348 c15 -13 15 -15 0 -26 -14 -10 -13 -11 5 -2 30 14 70 13
76 -2 3 -7 5 1 5 17 0 17 -2 24 -5 18 -6 -16 -46 -17 -76 -2 -19 9 -20 8 -5
-3z"/>
<path d="M2684 1286 c-13 -52 37 -66 55 -16 5 17 14 30 19 30 18 0 21 -29 6
-45 -9 -8 -11 -15 -5 -15 20 0 31 36 17 55 -15 21 -33 13 -46 -21 -5 -13 -16
-24 -25 -24 -21 0 -19 37 3 49 16 10 16 10 0 11 -10 0 -20 -10 -24 -24z"/>
<path d="M4228 1287 c-21 -6 -38 -14 -38 -19 0 -10 24 -11 34 0 4 4 22 12 39
19 39 14 16 14 -35 0z"/>
<path d="M4553 1293 c15 -2 27 -8 27 -13 0 -5 -12 -11 -27 -13 -16 -2 -1 -4
32 -4 33 0 48 2 33 4 -16 2 -28 8 -28 13 0 5 12 11 28 13 15 2 0 4 -33 4 -33
0 -48 -2 -32 -4z"/>
<path d="M4238 1253 c7 -3 16 -2 19 1 4 3 -2 6 -13 5 -11 0 -14 -3 -6 -6z"/>
<path d="M4265 1240 c-3 -5 1 -10 9 -10 9 0 16 5 16 10 0 6 -4 10 -9 10 -6 0
-13 -4 -16 -10z"/>
<path d="M4207 1223 c-20 -5 -13 -23 9 -23 8 0 13 4 9 9 -3 5 3 12 12 14 12 3
13 5 3 5 -8 0 -23 -2 -33 -5z"/>
<path d="M2718 1207 c-21 -6 -38 -14 -38 -19 0 -10 24 -11 34 0 4 4 22 12 39
19 39 14 16 14 -35 0z"/>
<path d="M4538 1203 c7 -3 16 -2 19 1 4 3 -2 6 -13 5 -11 0 -14 -3 -6 -6z"/>
<path d="M4577 1200 c9 -9 9 -19 2 -33 -8 -14 -8 -18 0 -13 6 4 11 1 11 -8 0
-8 -8 -17 -17 -19 -10 -3 2 -5 27 -4 25 0 35 2 24 4 -22 4 -39 39 -24 48 5 3
11 -3 13 -12 3 -10 5 -2 6 17 0 25 -2 31 -8 21 -8 -13 -12 -13 -28 -1 -14 11
-15 11 -6 0z"/>
<path d="M4255 1190 c27 -12 43 -12 25 0 -8 5 -22 9 -30 9 -10 0 -8 -3 5 -9z"/>
<path d="M4632 1180 c0 -14 2 -19 5 -12 2 6 2 18 0 25 -3 6 -5 1 -5 -13z"/>
<path d="M2728 1173 c7 -3 16 -2 19 1 4 3 -2 6 -13 5 -11 0 -14 -3 -6 -6z"/>
<path d="M2755 1160 c-3 -5 1 -10 9 -10 9 0 16 5 16 10 0 6 -4 10 -9 10 -6 0
-13 -4 -16 -10z"/>
<path d="M2697 1143 c-20 -5 -13 -23 9 -23 8 0 13 4 9 9 -3 5 3 12 12 14 12 3
13 5 3 5 -8 0 -23 -2 -33 -5z"/>
<path d="M3932 1075 c0 -33 3 -50 5 -38 3 14 13 23 31 26 l27 4 -27 2 c-18 0
-28 7 -28 16 0 9 10 16 28 16 27 2 27 2 2 6 -14 3 -28 10 -32 17 -4 6 -7 -16
-6 -49z"/>
<path d="M2745 1110 c27 -12 43 -12 25 0 -8 5 -22 9 -30 9 -10 0 -8 -3 5 -9z"/>
<path d="M4032 1083 c-2 -41 -3 -42 -39 -46 l-38 -4 38 -1 c43 -2 51 9 44 60
-3 30 -4 29 -5 -9z"/>
<path d="M3973 930 c0 -36 2 -50 4 -32 5 37 20 43 26 10 2 -13 5 -4 6 20 1 57
19 53 24 -5 l3 -48 2 53 c2 46 0 52 -18 52 -13 0 -20 -7 -20 -20 0 -30 -18
-24 -23 8 -2 15 -4 -2 -4 -38z"/>
<path d="M3926 964 c-3 -9 -5 -25 -5 -37 1 -16 3 -14 8 8 4 17 13 29 20 27 7
-1 10 2 6 8 -9 15 -22 12 -29 -6z"/>
<path d="M4700 921 c0 -6 7 -8 15 -5 12 5 15 -3 15 -36 0 -33 -3 -41 -15 -36
-8 3 -15 1 -15 -5 0 -6 8 -9 18 -7 13 3 17 13 17 48 0 35 -4 45 -17 48 -10 2
-18 -1 -18 -7z"/>
<path d="M4750 918 c0 -21 28 -50 44 -45 6 2 12 17 12 33 l2 29 -5 -28 c-5
-33 -23 -31 -40 4 -9 17 -13 19 -13 7z"/>
<path d="M2798 888 c-24 -38 -46 -109 -52 -170 -6 -55 -5 -58 29 -93 36 -35
36 -35 126 -35 l90 0 34 37 c31 34 33 41 28 87 -5 56 -30 139 -51 174 -13 20
-22 22 -102 22 -80 0 -89 -2 -102 -22z m196 -10 c20 -29 20 -62 0 -82 -19 -20
-173 -23 -192 -4 -17 17 -15 68 5 90 13 14 31 18 94 18 69 0 80 -2 93 -22z
m-189 -120 c-8 -5 -15 -14 -15 -20 0 -6 6 -6 16 3 9 8 45 13 95 13 93 1 107
-8 116 -73 9 -67 -11 -81 -117 -81 -113 0 -118 6 -118 118 0 82 0 83 19 66 17
-16 18 -19 4 -26z m215 5 c0 -36 0 -36 -20 -18 -19 17 -19 19 -4 37 23 24 24
24 24 -19z m-250 -45 c0 -45 -4 -68 -9 -62 -9 8 -3 134 5 134 2 0 4 -32 4 -72z
m269 -62 c-5 -6 -8 17 -8 60 l2 69 7 -60 c5 -34 4 -64 -1 -69z m-116 107 c-13
-2 -33 -2 -45 0 -13 2 -3 4 22 4 25 0 35 -2 23 -4z"/>
<path d="M2827 863 c-3 -5 28 -8 68 -8 40 0 71 3 68 8 -2 4 -33 7 -68 7 -35 0
-66 -3 -68 -7z"/>
<path d="M3597 892 c-24 -26 -57 -137 -57 -191 0 -40 5 -50 35 -79 34 -31 39
-32 120 -32 83 0 86 1 121 34 37 35 37 35 31 100 -4 41 -17 88 -34 123 l-28
58 -86 3 c-72 2 -88 0 -102 -16z m195 -14 c11 -22 13 -31 16 -105 2 -26 5 -31
20 -27 13 5 14 4 3 -4 -10 -7 -21 -6 -37 6 -19 14 -21 19 -8 28 7 6 14 15 14
20 0 4 -5 3 -12 -4 -7 -7 -44 -12 -95 -12 -78 0 -84 2 -99 26 -16 23 -16 28
-1 60 l17 34 84 0 c78 0 86 -2 98 -22z m-184 -103 c3 -3 -3 -15 -15 -26 l-20
-21 -5 30 c-4 26 -1 30 15 26 11 -2 22 -6 25 -9z m219 -7 c-3 -8 -6 -5 -6 6
-1 11 2 17 5 13 3 -3 4 -12 1 -19z m-109 -5 c-10 -2 -28 -2 -40 0 -13 2 -5 4
17 4 22 1 32 -1 23 -4z m-156 -65 c2 -21 0 -38 -4 -38 -4 0 -7 24 -7 53 1 54
5 49 11 -15z m233 36 c8 -10 15 -40 15 -66 0 -60 -14 -68 -115 -68 -102 0
-115 8 -115 70 0 74 16 85 118 84 69 -1 85 -4 97 -20z m45 -39 c0 -19 -4 -35
-8 -35 -4 0 -6 16 -4 35 2 19 6 35 8 35 2 0 4 -16 4 -35z"/>
<path d="M3627 863 c-3 -5 28 -8 68 -8 40 0 71 3 68 8 -2 4 -33 7 -68 7 -35 0
-66 -3 -68 -7z"/>
<path d="M4906 891 c-23 -25 -53 -124 -57 -184 -3 -43 0 -50 34 -82 36 -34 39
-35 122 -35 85 0 86 0 122 36 35 36 36 37 30 100 -4 39 -17 86 -34 121 l-28
58 -86 3 c-74 2 -88 0 -103 -17z m194 -12 c6 -11 14 -47 16 -80 5 -58 4 -59
-16 -47 -18 11 -18 14 -5 24 8 6 15 15 15 20 0 4 -5 3 -12 -4 -7 -7 -44 -12
-95 -12 -78 0 -84 2 -99 26 -16 23 -16 28 -1 60 l17 34 84 0 c76 0 87 -2 96
-21z m-182 -104 c3 -3 -3 -15 -15 -26 l-20 -21 -5 30 c-4 26 -1 30 15 26 11
-2 22 -6 25 -9z m219 -7 c-3 -8 -6 -5 -6 6 -1 11 2 17 5 13 3 -3 4 -12 1 -19z
m-109 -5 c-10 -2 -28 -2 -40 0 -13 2 -5 4 17 4 22 1 32 -1 23 -4z m-156 -65
c2 -21 0 -38 -4 -38 -4 0 -7 24 -7 53 1 54 5 49 11 -15z m233 36 c8 -10 15
-40 15 -66 0 -60 -14 -68 -115 -68 -102 0 -115 8 -115 70 0 74 16 85 118 84
69 -1 85 -4 97 -20z m45 -39 c0 -19 -4 -35 -8 -35 -4 0 -6 16 -4 35 2 19 6 35
8 35 2 0 4 -16 4 -35z"/>
<path d="M4937 863 c-3 -5 28 -8 68 -8 40 0 71 3 68 8 -2 4 -33 7 -68 7 -35 0
-66 -3 -68 -7z"/>
<path d="M3930 888 c0 -4 4 -8 9 -8 6 0 12 4 15 8 3 5 -1 9 -9 9 -8 0 -15 -4
-15 -9z"/>
<path d="M3935 830 c-4 -6 -4 -14 -1 -17 3 -4 6 -1 6 5 0 7 17 12 44 12 34 0
46 -4 49 -17 3 -14 4 -13 3 2 -1 17 -9 21 -48 23 -26 2 -49 -2 -53 -8z"/>
<path d="M4763 833 c9 -2 25 -2 35 0 9 3 1 5 -18 5 -19 0 -27 -2 -17 -5z"/>
<path d="M3938 783 c-5 -19 -2 -23 18 -23 33 0 30 -18 -3 -23 -16 -2 -1 -4 32
-4 33 0 48 2 33 4 -16 2 -28 8 -28 13 0 5 12 11 28 13 17 2 10 5 -20 6 -36 1
-47 5 -50 19 -3 14 -5 13 -10 -5z"/>
<path d="M4743 735 c0 -33 2 -48 4 -32 5 33 20 36 26 5 2 -13 5 -4 6 20 0 23
5 42 10 42 6 0 12 -19 14 -42 l4 -43 1 48 c2 41 -1 47 -18 47 -13 0 -20 -7
-20 -20 0 -30 -18 -24 -23 8 -2 15 -4 0 -4 -33z"/>
<path d="M4700 776 c0 -2 7 -6 15 -10 8 -3 15 -1 15 4 0 6 -7 10 -15 10 -8 0
-15 -2 -15 -4z"/>
<path d="M4692 735 c0 -16 2 -22 5 -12 2 9 2 23 0 30 -3 6 -5 -1 -5 -18z"/>
<path d="M4720 701 c0 -7 -5 -9 -12 -5 -7 5 -8 3 -3 -5 5 -9 10 -10 18 -2 6 6
8 14 4 18 -4 3 -7 1 -7 -6z"/>
<path d="M3934 626 c-13 -52 37 -66 55 -16 5 17 14 30 19 30 18 0 21 -29 6
-45 -9 -8 -11 -15 -5 -15 20 0 31 36 17 55 -15 21 -33 13 -46 -21 -5 -13 -16
-24 -25 -24 -21 0 -19 37 3 49 16 10 16 10 0 11 -10 0 -20 -10 -24 -24z"/>
<path d="M4778 633 c33 -6 29 -40 -5 -46 -27 -5 -27 -5 2 -3 25 1 30 5 30 26
0 20 -5 25 -25 26 -22 1 -22 0 -2 -3z"/>
<path d="M4708 623 c7 -3 16 -2 19 1 4 3 -2 6 -13 5 -11 0 -14 -3 -6 -6z"/>
<path d="M1146 592 c-3 -5 1 -9 9 -9 8 0 12 4 9 9 -3 4 -7 8 -9 8 -2 0 -6 -4
-9 -8z"/>
<path d="M1194 565 c-2 -21 1 -22 17 -12 10 6 17 12 16 12 -1 0 -9 6 -17 12
-12 9 -15 7 -16 -12z"/>
<path d="M1242 570 c0 -14 2 -19 5 -12 2 6 2 18 0 25 -3 6 -5 1 -5 -13z"/>
<path d="M1132 550 c0 -14 2 -19 5 -12 2 6 2 18 0 25 -3 6 -5 1 -5 -13z"/>
<path d="M1172 550 c0 -14 2 -19 5 -12 2 6 2 18 0 25 -3 6 -5 1 -5 -13z"/>
<path d="M2728 553 c6 -2 18 -2 25 0 6 3 1 5 -13 5 -14 0 -19 -2 -12 -5z"/>
<path d="M3968 547 c-21 -6 -38 -14 -38 -19 0 -10 24 -11 34 0 4 4 22 12 39
19 39 14 16 14 -35 0z"/>
<path d="M2694 539 c-16 -27 64 -40 85 -15 8 10 9 16 1 21 -6 4 -9 1 -8 -7 2
-9 -8 -13 -32 -13 -23 0 -34 4 -32 13 3 15 -5 16 -14 1z"/>
<path d="M2911 534 c0 -11 3 -14 6 -6 3 7 2 16 -1 19 -3 4 -6 -2 -5 -13z"/>
<path d="M2983 495 c0 -33 2 -45 4 -27 2 18 2 45 0 60 -2 15 -4 0 -4 -33z"/>
<path d="M3026 542 c6 -4 14 -14 17 -22 4 -12 6 -12 6 2 1 9 9 19 19 21 9 3 1
5 -18 6 -19 0 -30 -3 -24 -7z"/>
<path d="M4748 543 c12 -2 32 -2 45 0 12 2 2 4 -23 4 -25 0 -35 -2 -22 -4z"/>
<path d="M1148 513 c7 -3 16 -2 19 1 4 3 -2 6 -13 5 -11 0 -14 -3 -6 -6z"/>
<path d="M1193 513 c9 -2 17 -10 17 -16 0 -9 2 -9 8 -1 4 6 14 14 22 17 8 3
-3 5 -25 5 -22 0 -32 -2 -22 -5z"/>
<path d="M2833 480 c0 -25 2 -35 4 -22 2 12 2 32 0 45 -2 12 -4 2 -4 -23z"/>
<path d="M3978 513 c7 -3 16 -2 19 1 4 3 -2 6 -13 5 -11 0 -14 -3 -6 -6z"/>
<path d="M2873 494 c22 -26 22 -41 0 -47 -10 -3 0 -5 22 -5 22 0 32 2 23 5
-10 2 -18 9 -18 15 0 6 8 21 18 32 17 21 17 21 -4 4 -19 -17 -21 -17 -39 0
-19 17 -19 16 -2 -4z"/>
<path d="M3024 498 c21 -12 20 -25 -1 -31 -10 -3 -2 -5 17 -6 25 0 31 2 21 8
-11 7 -12 13 -4 23 9 10 5 13 -19 14 -23 1 -27 -1 -14 -8z"/>
<path d="M4005 500 c-3 -5 1 -10 9 -10 9 0 16 5 16 10 0 6 -4 10 -9 10 -6 0
-13 -4 -16 -10z"/>
<path d="M2768 493 c7 -3 16 -2 19 1 4 3 -2 6 -13 5 -11 0 -14 -3 -6 -6z"/>
<path d="M3947 483 c-20 -5 -13 -23 9 -23 8 0 13 4 9 9 -3 5 3 12 12 14 12 3
13 5 3 5 -8 0 -23 -2 -33 -5z"/>
<path d="M2730 458 c0 -14 8 -18 33 -17 27 2 28 2 7 6 -14 3 -28 10 -32 17 -5
7 -8 5 -8 -6z"/>
<path d="M1143 405 c0 -33 2 -46 4 -28 3 23 10 33 26 36 l22 4 -22 2 c-14 1
-23 9 -26 24 -2 12 -4 -5 -4 -38z"/>
<path d="M3995 450 c27 -12 43 -12 25 0 -8 5 -22 9 -30 9 -10 0 -8 -3 5 -9z"/>
<path d="M1238 405 c-2 -25 0 -45 4 -45 5 0 8 20 8 45 0 25 -2 45 -4 45 -2 0
-6 -20 -8 -45z"/>
<path d="M3038 443 c7 -3 16 -2 19 1 4 3 -2 6 -13 5 -11 0 -14 -3 -6 -6z"/>
<path d="M4310 4265 l0 -165 70 0 70 0 0 165 0 165 -70 0 -70 0 0 -165z m130
0 l0 -155 -60 0 -60 0 0 155 0 155 60 0 60 0 0 -155z"/>
<path d="M4490 4265 l0 -165 70 0 70 0 0 165 0 165 -70 0 -70 0 0 -165z m130
0 l0 -155 -60 0 -60 0 0 155 0 155 60 0 60 0 0 -155z"/>
<path d="M1060 3400 l0 -70 170 0 171 0 -3 68 -3 67 -167 3 -168 2 0 -70z
m330 0 l0 -60 -160 0 -160 0 0 60 0 60 160 0 160 0 0 -60z"/>
<path d="M2043 622 c-7 -4 22 -8 63 -8 41 0 67 4 57 8 -24 9 -105 9 -120 0z"/>
<path d="M1570 330 l0 -170 70 0 70 0 0 170 0 170 -70 0 -70 0 0 -170z m130 0
l0 -160 -60 0 -60 0 0 160 0 160 60 0 60 0 0 -160z"/>
<path d="M5815 2848 c-3 -7 -4 -231 -3 -498 l3 -485 218 -3 217 -2 0 500 0
500 -215 0 c-163 0 -217 -3 -220 -12z m210 -488 l0 -485 -100 0 -100 0 -3 475
c-1 261 0 481 3 488 3 9 30 12 102 10 l98 -3 0 -485z m215 0 l0 -490 -100 0
-100 0 0 490 0 490 100 0 100 0 0 -490z"/>
<path d="M5877 2783 c-9 -9 -9 -41 1 -46 4 -2 21 -7 37 -11 24 -6 28 -5 18 5
-20 20 -16 49 6 49 23 0 34 -23 18 -39 -8 -8 -8 -11 0 -11 17 0 23 26 9 45
-17 23 -50 15 -54 -13 -4 -29 -28 -23 -25 7 3 22 1 25 -10 14z"/>
<path d="M5913 2645 c0 -33 2 -45 4 -27 2 18 2 45 0 60 -2 15 -4 0 -4 -33z"/>
<path d="M5935 2680 c8 -31 8 -39 0 -70 -5 -21 -4 -20 9 5 14 30 14 30 16 5
l1 -25 10 24 c6 15 6 34 0 50 l-9 26 -2 -25 c-2 -25 -2 -25 -16 5 -13 25 -14
26 -9 5z"/>
<path d="M5870 2686 c0 -2 7 -6 15 -10 8 -3 15 -1 15 4 0 6 -7 10 -15 10 -8 0
-15 -2 -15 -4z"/>
<path d="M5862 2645 c0 -16 2 -22 5 -12 2 9 2 23 0 30 -3 6 -5 -1 -5 -18z"/>
<path d="M5890 2611 c0 -7 -5 -9 -12 -5 -7 5 -8 3 -3 -5 5 -9 10 -10 18 -2 6
6 8 14 4 18 -4 3 -7 1 -7 -6z"/>
<path d="M5877 2503 c-14 -13 -7 -74 8 -79 21 -8 19 -50 -2 -64 -20 -13 -10
-11 50 11 46 16 43 28 -11 48 -38 14 -42 19 -42 48 0 31 1 32 48 36 l47 3 -46
2 c-25 1 -49 -1 -52 -5z m76 -103 c16 0 -14 -20 -30 -20 -7 0 -13 7 -13 16 0
11 5 14 16 10 9 -3 21 -6 27 -6z"/>
<path d="M5944 2325 c-10 -8 -32 -15 -49 -16 l-30 -1 33 -8 c19 -4 39 -13 45
-19 6 -6 16 -11 21 -11 6 0 0 7 -13 16 l-24 17 24 18 c13 10 21 19 18 19 -3 0
-14 -7 -25 -15z"/>
<path d="M5882 2228 c-6 -6 -12 -22 -12 -35 0 -39 65 -58 91 -26 13 15 12 15
-7 3 -13 -8 -32 -10 -48 -6 -22 5 -27 11 -24 34 2 23 8 28 37 30 20 2 38 -2
43 -10 8 -10 9 -10 5 2 -5 19 -68 25 -85 8z"/>
<path d="M5888 2119 c-21 -12 -23 -40 -6 -57 7 -7 30 -11 53 -10 l40 1 -45 6
c-37 5 -46 10 -48 28 -3 23 3 26 68 36 18 3 15 5 -10 5 -19 1 -43 -3 -52 -9z"/>
<path d="M5970 2016 c0 -11 -15 -16 -52 -19 l-53 -3 52 -2 c40 -2 53 -6 56
-19 3 -10 5 -1 6 20 0 20 -1 37 -4 37 -3 0 -5 -7 -5 -14z"/>
<path d="M6140 2730 c0 -35 3 -60 6 -57 4 3 7 29 7 57 0 28 -3 54 -7 57 -3 3
-6 -22 -6 -57z"/>
<path d="M6086 2764 c-3 -9 -5 -25 -5 -37 1 -16 3 -14 8 8 4 17 13 29 20 27 7
-1 10 2 6 8 -9 15 -22 12 -29 -6z"/>
<path d="M6181 2762 c-1 -13 -4 -21 -8 -19 -5 3 -9 -6 -10 -20 -1 -19 1 -22 8
-12 6 10 9 8 10 -11 1 -23 2 -22 10 7 6 19 5 40 0 55 l-10 23 0 -23z"/>
<path d="M6090 2688 c0 -4 4 -8 9 -8 6 0 12 4 15 8 3 5 -1 9 -9 9 -8 0 -15 -4
-15 -9z"/>
<path d="M6130 2635 c0 -6 5 -16 12 -23 8 -8 8 -15 -2 -27 -20 -25 -7 -23 19
2 19 18 21 23 8 23 -9 0 -21 8 -26 18 -6 9 -11 12 -11 7z"/>
<path d="M6098 2623 c7 -3 16 -2 19 1 4 3 -2 6 -13 5 -11 0 -14 -3 -6 -6z"/>
<path d="M6192 2600 c0 -19 2 -27 5 -17 2 9 2 25 0 35 -3 9 -5 1 -5 -18z"/>
<path d="M6160 2563 c0 -6 -10 -14 -22 -16 -13 -2 -3 -5 22 -5 25 0 38 2 30 5
-8 3 -18 11 -22 17 -6 8 -8 8 -8 -1z"/>
<path d="M6101 2478 c-1 -23 42 -50 71 -46 18 2 23 10 24 33 2 29 2 29 -3 3
-3 -21 -10 -28 -27 -28 -25 0 -51 18 -59 40 -4 12 -6 11 -6 -2z"/>
<path d="M6118 2393 c18 -2 45 -2 60 0 15 2 0 4 -33 4 -33 0 -45 -2 -27 -4z"/>
<path d="M6100 2334 c0 -17 27 -37 42 -31 8 4 7 6 -4 6 -9 1 -22 9 -27 19 -6
9 -11 12 -11 6z"/>
<path d="M6192 2320 c0 -14 2 -19 5 -12 2 6 2 18 0 25 -3 6 -5 1 -5 -13z"/>
<path d="M6113 2273 c15 -2 27 -8 27 -13 0 -5 -12 -11 -27 -13 -16 -2 -1 -4
32 -4 33 0 48 2 33 4 -16 2 -28 8 -28 13 0 5 12 11 28 13 15 2 0 4 -33 4 -33
0 -48 -2 -32 -4z"/>
<path d="M6150 2196 c0 -9 40 -13 46 -5 3 5 -6 9 -20 9 -14 0 -26 -2 -26 -4z"/>
<path d="M6084 2176 c-3 -8 -4 -29 -1 -48 3 -30 4 -30 5 9 1 23 8 44 15 46 9
4 9 6 -1 6 -7 1 -15 -5 -18 -13z"/>
<path d="M6140 2166 c0 -8 4 -17 9 -20 5 -4 7 3 4 14 -6 23 -13 26 -13 6z"/>
<path d="M6149 2101 c12 -8 51 -4 51 5 0 2 -15 4 -32 4 -23 0 -29 -3 -19 -9z"/>
<path d="M6152 2034 c17 -17 17 -19 0 -38 -17 -21 -17 -21 6 -2 12 11 22 22
22 25 0 3 -10 12 -22 20 -22 13 -22 12 -6 -5z"/>
<path d="M6082 1993 c1 -48 1 -48 5 -8 3 22 10 43 16 47 8 5 6 8 -5 8 -15 0
-18 -8 -16 -47z"/>
<path d="M6153 1953 c9 -2 25 -2 35 0 9 3 1 5 -18 5 -19 0 -27 -2 -17 -5z"/>
</g>
</svg>
